<?xml version="1.0" encoding="UTF-8" standalone="no"?>
<!DOCTYPE svg PUBLIC "-//W3C//DTD SVG 1.1//EN" "http://www.w3.org/Graphics/SVG/1.1/DTD/svg11.dtd">
<svg width="100%" height="100%" viewBox="0 0 321 188" version="1.1" xmlns="http://www.w3.org/2000/svg" xmlns:xlink="http://www.w3.org/1999/xlink" xml:space="preserve" xmlns:serif="http://www.serif.com/" style="fill-rule:evenodd;clip-rule:evenodd;stroke-linecap:round;stroke-linejoin:round;stroke-miterlimit:1.5;">
    <g transform="matrix(1,0,0,1,-389.176,-481.046)">
        <path d="M499.466,566.929L539.623,566.929" style="fill:none;stroke:black;stroke-width:4.08px;"/>
        <g transform="matrix(1,0,0,1,6,-1)">
            <path d="M438.002,520.939L438.002,496.353L464.636,496.353" style="fill:none;stroke:black;stroke-width:4.08px;"/>
        </g>
        <g transform="matrix(6.12323e-17,-1,1,6.12323e-17,-50.3271,1076.52)">
            <path d="M438.002,520.939L438.002,496.353L464.636,496.353" style="fill:none;stroke:black;stroke-width:4.08px;"/>
        </g>
        <g transform="matrix(-1,-1.22465e-16,1.22465e-16,-1,1031.68,1134.86)">
            <path d="M438.002,520.939L438.002,496.353L464.636,496.353" style="fill:none;stroke:black;stroke-width:4.08px;"/>
        </g>
        <g transform="matrix(-1.83697e-16,1,-1,-1.83697e-16,1089.01,56.3456)">
            <path d="M438.002,520.939L438.002,496.353L464.636,496.353" style="fill:none;stroke:black;stroke-width:4.08px;"/>
        </g>
        <g transform="matrix(1,0,0,0.8125,-4,106.299)">
            <path d="M566.929,472.441L566.929,661.417" style="fill:none;stroke:black;stroke-width:1.18px;stroke-dasharray:4.73,4.73,0,0;"/>
        </g>
        <g transform="matrix(1,0,0,0.437514,-23.5698,319.389)">
            <path d="M566.929,472.441L566.929,661.417" style="fill:none;stroke:black;stroke-width:1.4px;stroke-dasharray:5.59,5.59,0,0;"/>
        </g>
        <g transform="matrix(1,0,0,0.437514,-70.84,319.389)">
            <path d="M566.929,472.441L566.929,661.417" style="fill:none;stroke:black;stroke-width:1.4px;stroke-dasharray:5.59,5.59,0,0;"/>
        </g>
        <g transform="matrix(6.12323e-17,1,-0.465814,2.85229e-17,782.999,-20.8077)">
            <path d="M566.929,472.441L566.929,661.417" style="fill:none;stroke:black;stroke-width:1.38px;stroke-dasharray:5.53,5.53,0,0;"/>
        </g>
        <g transform="matrix(6.12323e-17,1,-0.465814,2.85229e-17,782.374,23.8566)">
            <path d="M566.929,472.441L566.929,661.417" style="fill:none;stroke:black;stroke-width:1.38px;stroke-dasharray:5.53,5.53,0,0;"/>
        </g>
        <g transform="matrix(1.05334,0,0,1,-22.0033,5)">
            <path d="M437.008,603.769L588.864,603.769" style="fill:none;stroke:black;stroke-width:1.05px;stroke-dasharray:4.2,4.2,0,0;"/>
        </g>
        <g transform="matrix(0.902859,0,0,1,49.0879,-4)">
            <path d="M608.268,530.089L431.102,530.089" style="fill:none;stroke:black;stroke-width:1.13px;stroke-dasharray:4.53,4.53,0,0;"/>
        </g>
        <g transform="matrix(1,0,0,1,3,0)">
            <path d="M472.441,490.157L472.441,643.701" style="fill:none;stroke:black;stroke-width:1.08px;stroke-dasharray:4.31,4.31,0,0;"/>
        </g>
        <g transform="matrix(0.902859,0,0,1,49.0879,0)">
            <rect x="431.102" y="490.157" width="177.165" height="153.543" style="fill:none;stroke:black;stroke-width:1.13px;stroke-dasharray:4.53,4.53,0,0;"/>
        </g>
        <g id="Forward--small-" serif:id="Forward (small)" transform="matrix(-0.213385,2.61322e-17,-2.99332e-17,-0.244423,545.597,619.971)">
            <path d="M311.2,217.5L300,206.5L300,213L286,213L286,222L300,222L300,228.5L311.2,217.5Z" style="fill-rule:nonzero;"/>
        </g>
        <g id="Forward--small-1" serif:id="Forward (small)" transform="matrix(0.213385,9.24446e-33,0,0.244423,425.606,513.647)">
            <path d="M311.2,217.5L300,206.5L300,213L286,213L286,222L300,222L300,228.5L311.2,217.5Z" style="fill-rule:nonzero;"/>
        </g>
        <g id="Forward--small-2" serif:id="Forward (small)" transform="matrix(-0.213385,2.61322e-17,-2.99332e-17,-0.244423,612.597,619.971)">
            <path d="M311.2,217.5L300,206.5L300,213L286,213L286,222L300,222L300,228.5L311.2,217.5Z" style="fill-rule:nonzero;"/>
        </g>
        <g id="Forward--small-3" serif:id="Forward (small)" transform="matrix(0.213385,9.24446e-33,0,0.244423,492.606,513.647)">
            <path d="M311.2,217.5L300,206.5L300,213L286,213L286,222L300,222L300,228.5L311.2,217.5Z" style="fill-rule:nonzero;"/>
        </g>
        <path d="M519.685,550.081L519.685,576.492" style="fill:none;"/>
        <g transform="matrix(0.96854,0,0,0.79184,23.1142,106.948)">
            <rect x="377.953" y="472.441" width="330.709" height="236.22" style="fill:none;"/>
        </g>
        <path d="M519.685,550.081L519.685,584.862" style="fill:none;stroke:black;stroke-width:4.08px;"/>
        <g id="Forward--small-4" serif:id="Forward (small)" transform="matrix(2.86991e-17,0.468691,-0.536865,3.28735e-17,573.398,438.789)">
            <path d="M311.2,217.5L300,206.5L300,213L286,213L286,222L300,222L300,228.5L311.2,217.5Z" style="fill-rule:nonzero;"/>
        </g>
        <g id="Forward--small-5" serif:id="Forward (small)" transform="matrix(2.86991e-17,-0.468691,0.536865,3.28735e-17,339.862,689.164)">
            <path d="M311.2,217.5L300,206.5L300,213L286,213L286,222L300,222L300,228.5L311.2,217.5Z" style="fill-rule:nonzero;"/>
        </g>
        <g id="Forward--small-6" serif:id="Forward (small)" transform="matrix(2.86991e-17,0.468691,-0.536865,3.28735e-17,696.966,441.742)">
            <path d="M311.2,217.5L300,206.5L300,213L286,213L286,222L300,222L300,228.5L311.2,217.5Z" style="fill-rule:nonzero;"/>
        </g>
        <g id="Forward--small-7" serif:id="Forward (small)" transform="matrix(2.86991e-17,-0.468691,0.536865,3.28735e-17,463.43,692.117)">
            <path d="M311.2,217.5L300,206.5L300,213L286,213L286,222L300,222L300,228.5L311.2,217.5Z" style="fill-rule:nonzero;"/>
        </g>
        <g id="Forward--small-8" serif:id="Forward (small)" transform="matrix(0.468691,1.98521e-32,0,0.536865,393.631,391.782)">
            <path d="M311.2,217.5L300,206.5L300,213L286,213L286,222L300,222L300,228.5L311.2,217.5Z" style="fill-rule:nonzero;"/>
        </g>
        <g id="Forward--small-9" serif:id="Forward (small)" transform="matrix(-0.468691,-5.73981e-17,6.5747e-17,-0.536865,644.006,625.318)">
            <path d="M311.2,217.5L300,206.5L300,213L286,213L286,222L300,222L300,228.5L311.2,217.5Z" style="fill-rule:nonzero;"/>
        </g>
        <g id="Forward--small-10" serif:id="Forward (small)" transform="matrix(0.468691,1.98521e-32,0,0.536865,393.631,509.782)">
            <path d="M311.2,217.5L300,206.5L300,213L286,213L286,222L300,222L300,228.5L311.2,217.5Z" style="fill-rule:nonzero;"/>
        </g>
        <g id="Forward--small-11" serif:id="Forward (small)" transform="matrix(-0.468691,-5.73981e-17,6.5747e-17,-0.536865,644.006,743.318)">
            <path d="M311.2,217.5L300,206.5L300,213L286,213L286,222L300,222L300,228.5L311.2,217.5Z" style="fill-rule:nonzero;"/>
        </g>
        <g id="Forward--small-12" serif:id="Forward (small)" transform="matrix(1.30661e-17,0.213385,-0.244423,1.49666e-17,571.763,475.814)">
            <path d="M311.2,217.5L300,206.5L300,213L286,213L286,222L300,222L300,228.5L311.2,217.5Z" style="fill-rule:nonzero;"/>
        </g>
        <g id="Forward--small-13" serif:id="Forward (small)" transform="matrix(1.30661e-17,-0.213385,0.244423,1.49666e-17,465.439,595.804)">
            <path d="M311.2,217.5L300,206.5L300,213L286,213L286,222L300,222L300,228.5L311.2,217.5Z" style="fill-rule:nonzero;"/>
        </g>
        <g id="Forward--small-14" serif:id="Forward (small)" transform="matrix(1.30661e-17,0.213385,-0.244423,1.49666e-17,571.763,539.814)">
            <path d="M311.2,217.5L300,206.5L300,213L286,213L286,222L300,222L300,228.5L311.2,217.5Z" style="fill-rule:nonzero;"/>
        </g>
        <g id="Forward--small-15" serif:id="Forward (small)" transform="matrix(1.30661e-17,-0.213385,0.244423,1.49666e-17,465.439,659.804)">
            <path d="M311.2,217.5L300,206.5L300,213L286,213L286,222L300,222L300,228.5L311.2,217.5Z" style="fill-rule:nonzero;"/>
        </g>
        <g id="Forward--small-16" serif:id="Forward (small)" transform="matrix(-0.213385,2.61322e-17,-2.99332e-17,-0.244423,545.597,588.971)">
            <path d="M311.2,217.5L300,206.5L300,213L286,213L286,222L300,222L300,228.5L311.2,217.5Z" style="fill-rule:nonzero;"/>
        </g>
        <g id="Forward--small-17" serif:id="Forward (small)" transform="matrix(0.213385,9.24446e-33,0,0.244423,425.606,482.647)">
            <path d="M311.2,217.5L300,206.5L300,213L286,213L286,222L300,222L300,228.5L311.2,217.5Z" style="fill-rule:nonzero;"/>
        </g>
        <g id="Forward--small-18" serif:id="Forward (small)" transform="matrix(-3.91982e-17,-0.213385,0.244423,-4.48998e-17,432.439,595.804)">
            <path d="M311.2,217.5L300,206.5L300,213L286,213L286,222L300,222L300,228.5L311.2,217.5Z" style="fill-rule:nonzero;"/>
        </g>
        <g id="Forward--small-19" serif:id="Forward (small)" transform="matrix(1.30661e-17,0.213385,-0.244423,1.49666e-17,538.763,475.814)">
            <path d="M311.2,217.5L300,206.5L300,213L286,213L286,222L300,222L300,228.5L311.2,217.5Z" style="fill-rule:nonzero;"/>
        </g>
        <g id="Forward--small-20" serif:id="Forward (small)" transform="matrix(-0.213385,2.61322e-17,-2.99332e-17,-0.244423,612.597,588.971)">
            <path d="M311.2,217.5L300,206.5L300,213L286,213L286,222L300,222L300,228.5L311.2,217.5Z" style="fill-rule:nonzero;"/>
        </g>
        <g id="Forward--small-21" serif:id="Forward (small)" transform="matrix(0.213385,9.24446e-33,0,0.244423,492.606,482.647)">
            <path d="M311.2,217.5L300,206.5L300,213L286,213L286,222L300,222L300,228.5L311.2,217.5Z" style="fill-rule:nonzero;"/>
        </g>
        <g id="Forward--small-22" serif:id="Forward (small)" transform="matrix(-3.91982e-17,-0.213385,0.244423,-4.48998e-17,499.439,595.804)">
            <path d="M311.2,217.5L300,206.5L300,213L286,213L286,222L300,222L300,228.5L311.2,217.5Z" style="fill-rule:nonzero;"/>
        </g>
        <g id="Forward--small-23" serif:id="Forward (small)" transform="matrix(1.30661e-17,0.213385,-0.244423,1.49666e-17,605.763,475.814)">
            <path d="M311.2,217.5L300,206.5L300,213L286,213L286,222L300,222L300,228.5L311.2,217.5Z" style="fill-rule:nonzero;"/>
        </g>
        <g id="Forward--small-24" serif:id="Forward (small)" transform="matrix(-0.213385,2.61322e-17,-2.99332e-17,-0.244423,545.597,652.971)">
            <path d="M311.2,217.5L300,206.5L300,213L286,213L286,222L300,222L300,228.5L311.2,217.5Z" style="fill-rule:nonzero;"/>
        </g>
        <g id="Forward--small-25" serif:id="Forward (small)" transform="matrix(0.213385,9.24446e-33,0,0.244423,425.606,546.647)">
            <path d="M311.2,217.5L300,206.5L300,213L286,213L286,222L300,222L300,228.5L311.2,217.5Z" style="fill-rule:nonzero;"/>
        </g>
        <g id="Forward--small-26" serif:id="Forward (small)" transform="matrix(-3.91982e-17,-0.213385,0.244423,-4.48998e-17,432.439,659.804)">
            <path d="M311.2,217.5L300,206.5L300,213L286,213L286,222L300,222L300,228.5L311.2,217.5Z" style="fill-rule:nonzero;"/>
        </g>
        <g id="Forward--small-27" serif:id="Forward (small)" transform="matrix(1.30661e-17,0.213385,-0.244423,1.49666e-17,538.763,539.814)">
            <path d="M311.2,217.5L300,206.5L300,213L286,213L286,222L300,222L300,228.5L311.2,217.5Z" style="fill-rule:nonzero;"/>
        </g>
        <g id="Forward--small-28" serif:id="Forward (small)" transform="matrix(-0.213385,2.61322e-17,-2.99332e-17,-0.244423,612.777,652.971)">
            <path d="M311.2,217.5L300,206.5L300,213L286,213L286,222L300,222L300,228.5L311.2,217.5Z" style="fill-rule:nonzero;"/>
        </g>
        <g id="Forward--small-29" serif:id="Forward (small)" transform="matrix(0.213385,9.24446e-33,0,0.244423,492.787,546.647)">
            <path d="M311.2,217.5L300,206.5L300,213L286,213L286,222L300,222L300,228.5L311.2,217.5Z" style="fill-rule:nonzero;"/>
        </g>
        <g id="Forward--small-30" serif:id="Forward (small)" transform="matrix(-3.91982e-17,-0.213385,0.244423,-4.48998e-17,499.62,659.804)">
            <path d="M311.2,217.5L300,206.5L300,213L286,213L286,222L300,222L300,228.5L311.2,217.5Z" style="fill-rule:nonzero;"/>
        </g>
        <g id="Forward--small-31" serif:id="Forward (small)" transform="matrix(1.30661e-17,0.213385,-0.244423,1.49666e-17,605.944,539.814)">
            <path d="M311.2,217.5L300,206.5L300,213L286,213L286,222L300,222L300,228.5L311.2,217.5Z" style="fill-rule:nonzero;"/>
        </g>
    </g>
</svg>
